<?xml version="1.0" standalone="no"?>
<!DOCTYPE svg PUBLIC "-//W3C//DTD SVG 20010904//EN"
 "http://www.w3.org/TR/2001/REC-SVG-20010904/DTD/svg10.dtd">
<svg version="1.0" xmlns="http://www.w3.org/2000/svg"
 width="512.000000pt" height="512.000000pt" viewBox="0 0 512.000000 512.000000"
 preserveAspectRatio="xMidYMid meet">

<g transform="translate(0.000000,512.000000) scale(0.100000,-0.100000)"
fill="#000000" stroke="none">
<path d="M2400 4965 l0 -155 -145 0 -145 0 0 -155 0 -155 145 0 145 0 -2 -276
-3 -277 -390 -298 -390 -297 -5 -472 -5 -472 -588 -230 -587 -231 0 -974 0
-973 2130 0 2130 0 0 973 0 974 -587 231 -588 230 -5 472 -5 472 -390 297
-390 298 -3 277 -2 276 145 0 145 0 0 155 0 155 -145 0 -145 0 0 155 0 155
-160 0 -160 0 0 -155z m480 -1531 l310 -236 2 -500 3 -501 590 -231 590 -232
3 -712 2 -712 -235 0 -235 0 -2 493 -3 492 -155 0 -155 0 -3 -493 -2 -492
-233 2 -232 3 -5 555 -5 555 -28 69 c-52 131 -152 243 -266 300 -95 48 -151
61 -261 61 -110 0 -166 -13 -261 -61 -114 -57 -214 -169 -266 -300 l-28 -69
-5 -555 -5 -555 -232 -3 -233 -2 -2 492 -3 493 -155 0 -155 0 -3 -492 -2 -493
-235 0 -235 0 2 712 3 712 590 232 590 231 5 503 5 502 305 233 c168 129 311
234 318 234 7 1 152 -105 322 -235z m-231 -1906 c48 -15 110 -75 137 -133 l24
-50 0 -517 0 -518 -250 0 -250 0 0 518 c0 498 1 519 21 562 58 129 178 181
318 138z"/>
<path d="M2400 2790 l0 -310 160 0 160 0 0 310 0 310 -160 0 -160 0 0 -310z"/>
</g>
</svg>
